<?xml version="1.0" standalone="no"?>
<!DOCTYPE svg PUBLIC "-//W3C//DTD SVG 20010904//EN"
 "http://www.w3.org/TR/2001/REC-SVG-20010904/DTD/svg10.dtd">
<svg version="1.0" xmlns="http://www.w3.org/2000/svg"
 width="260.000000pt" height="260.000000pt" viewBox="0 0 260.000000 260.000000"
 preserveAspectRatio="xMidYMid meet">
<metadata>
Created by potrace 1.11, written by Peter Selinger 2001-2013
</metadata>
<g transform="translate(0.000000,260.000000) scale(0.100000,-0.100000)"
fill="#000000" stroke="none">
<path d="M0 2364 l0 -235 455 -591 c250 -325 452 -594 450 -598 -4 -7 -423
-907 -432 -927 -4 -10 26 -13 130 -13 l136 0 238 298 c192 238 932 1224 982
1307 10 17 4 42 -43 164 -31 80 -55 145 -53 146 1 1 153 80 337 175 184 95
339 176 344 181 5 5 7 11 4 14 -8 9 -872 94 -879 87 -4 -4 -52 -110 -109 -237
-56 -126 -106 -234 -110 -238 -4 -4 -281 128 -616 294 -335 166 -660 325 -721
355 l-113 53 0 -235z"/>
<path d="M1515 731 c-76 -19 -115 -67 -115 -140 0 -66 28 -103 113 -146 91
-46 97 -52 97 -85 0 -63 -84 -84 -168 -41 -47 24 -56 18 -50 -35 5 -43 56 -68
137 -68 114 0 180 50 188 143 7 72 -19 108 -113 158 -92 49 -112 72 -96 108
16 34 57 42 112 21 66 -24 65 -24 65 19 0 33 -4 42 -26 52 -35 17 -106 24
-144 14z"/>
<path d="M2310 729 c-71 -21 -117 -91 -105 -160 9 -54 37 -85 109 -120 104
-53 125 -83 88 -130 -30 -36 -101 -30 -194 19 -5 2 -8 -17 -8 -43 0 -44 2 -47
38 -62 49 -21 157 -22 197 -1 59 31 79 63 83 131 4 56 1 66 -22 94 -14 17 -59
47 -101 68 -55 27 -77 43 -81 61 -8 33 1 52 32 66 22 10 36 9 85 -8 l59 -21 0
42 c0 35 -4 44 -25 53 -37 17 -116 22 -155 11z"/>
<path d="M1812 722 c-9 -6 -12 -64 -10 -253 l3 -244 45 0 45 0 3 88 3 87 52 0
c62 0 131 31 161 73 14 18 21 47 24 90 6 117 -47 158 -213 164 -55 2 -106 0
-113 -5z m182 -83 c34 -16 50 -65 35 -107 -14 -39 -35 -52 -88 -52 l-41 0 0
85 0 85 35 0 c19 0 45 -5 59 -11z"/>
</g>
</svg>
